<svg width="18" height="18" viewBox="0 0 18 18" fill="none" xmlns="http://www.w3.org/2000/svg">
<path d="M1.69128 5.00961L7.4985 15.0947C7.64362 15.3418 7.85079 15.5467 8.09948 15.689C8.34816 15.8314 8.62973 15.9062 8.91628 15.9062C9.20282 15.9062 9.48439 15.8314 9.73308 15.689C9.98177 15.5467 10.1889 15.3418 10.3341 15.0947L16.1413 5.00961C16.2809 4.77062 16.3545 4.49881 16.3545 4.22203C16.3545 3.94524 16.2809 3.67343 16.1413 3.43445C15.9981 3.18583 15.7913 2.97981 15.5421 2.83754C15.2929 2.69528 15.0104 2.62191 14.7235 2.62496H3.10905C2.82238 2.62214 2.54011 2.69563 2.2912 2.83788C2.0423 2.98013 1.8357 3.18603 1.69261 3.43445C1.55278 3.67332 1.47896 3.94506 1.47873 4.22185C1.4785 4.49863 1.55185 4.7705 1.69128 5.00961ZM2.61233 3.96636C2.66296 3.88 2.73564 3.80866 2.82293 3.75965C2.91021 3.71064 3.00896 3.68572 3.10905 3.68746H14.7235C14.8236 3.68572 14.9223 3.71064 15.0096 3.75965C15.0969 3.80866 15.1696 3.88 15.2202 3.96636C15.2661 4.044 15.2903 4.13252 15.2903 4.22269C15.2903 4.31286 15.2661 4.40138 15.2202 4.47902L9.413 14.5641C9.36135 14.6501 9.28834 14.7212 9.20106 14.7706C9.11379 14.82 9.01522 14.8459 8.91495 14.8459C8.81468 14.8459 8.71611 14.82 8.62884 14.7706C8.54156 14.7212 8.46855 14.6501 8.4169 14.5641L2.60968 4.47902C2.56422 4.40114 2.54049 4.3125 2.54096 4.22233C2.54142 4.13216 2.56607 4.04376 2.61233 3.96636Z" fill="black"/>
</svg>
