<svg width="183" height="146" viewBox="0 0 183 146" fill="none" xmlns="http://www.w3.org/2000/svg">
<rect width="182.053" height="145.5" transform="translate(0.753906)" fill="white"/>
<path d="M159.453 38.8871L148.075 20.6996C147.602 19.9442 146.875 19.3091 145.975 18.8653C145.076 18.4216 144.04 18.1869 142.983 18.1875H40.5782C39.5213 18.1869 38.485 18.4216 37.5857 18.8653C36.6863 19.3091 35.9594 19.9442 35.4864 20.6996L24.1081 38.8871C23.7164 39.5198 23.5121 40.216 23.5107 40.9219V118.219C23.5107 120.631 24.7095 122.944 26.8434 124.649C28.9772 126.354 31.8713 127.312 34.889 127.312H148.672C151.69 127.312 154.584 126.354 156.718 124.649C158.852 122.944 160.05 120.631 160.05 118.219V40.9219C160.049 40.216 159.845 39.5198 159.453 38.8871ZM44.0912 27.2813H139.47L145.159 36.375H38.4021L44.0912 27.2813ZM148.672 118.219H34.889V45.4688H148.672V118.219ZM118.562 83.1737C119.091 83.596 119.511 84.0975 119.797 84.6494C120.083 85.2014 120.231 85.7931 120.231 86.3906C120.231 86.9882 120.083 87.5798 119.797 88.1318C119.511 88.6838 119.091 89.1853 118.562 89.6075L95.8056 107.795C95.2772 108.218 94.6498 108.553 93.9591 108.782C93.2685 109.011 92.5282 109.129 91.7805 109.129C91.0329 109.129 90.2926 109.011 89.6019 108.782C88.9113 108.553 88.2838 108.218 87.7555 107.795L64.9989 89.6075C63.9313 88.7544 63.3316 87.5972 63.3316 86.3906C63.3316 85.184 63.9313 84.0269 64.9989 83.1737C66.0664 82.3205 67.5142 81.8412 69.0239 81.8412C70.5336 81.8412 71.9815 82.3205 73.049 83.1737L86.0914 93.6031V59.1094C86.0914 57.9035 86.6908 56.747 87.7577 55.8942C88.8246 55.0415 90.2717 54.5625 91.7805 54.5625C93.2894 54.5625 94.7365 55.0415 95.8034 55.8942C96.8703 56.747 97.4697 57.9035 97.4697 59.1094V93.6031L110.512 83.1737C111.04 82.751 111.668 82.4156 112.359 82.1868C113.049 81.9579 113.789 81.8402 114.537 81.8402C115.285 81.8402 116.025 81.9579 116.716 82.1868C117.406 82.4156 118.034 82.751 118.562 83.1737Z" fill="black" fill-opacity="0.5"/>
</svg>
