<svg width="18" height="18" viewBox="0 0 18 18" fill="none" xmlns="http://www.w3.org/2000/svg">
<path d="M1.31286 5.00961L7.12009 15.0947C7.2652 15.3418 7.47237 15.5467 7.72106 15.689C7.96975 15.8314 8.25132 15.9062 8.53786 15.9062C8.82441 15.9062 9.10598 15.8314 9.35466 15.689C9.60335 15.5467 9.81052 15.3418 9.95563 15.0947L15.7629 5.00961C15.9025 4.77062 15.9761 4.49881 15.9761 4.22203C15.9761 3.94524 15.9025 3.67343 15.7629 3.43445C15.6197 3.18583 15.4129 2.97981 15.1637 2.83754C14.9145 2.69528 14.632 2.62191 14.3451 2.62496H2.73063C2.44396 2.62214 2.16169 2.69563 1.91279 2.83788C1.66388 2.98013 1.45728 3.18603 1.31419 3.43445C1.17436 3.67332 1.10054 3.94506 1.10031 4.22185C1.10008 4.49863 1.17343 4.7705 1.31286 5.00961ZM2.23392 3.96636C2.28454 3.88 2.35722 3.80866 2.44451 3.75965C2.53179 3.71064 2.63054 3.68572 2.73063 3.68746H14.3451C14.4452 3.68572 14.5439 3.71064 14.6312 3.75965C14.7185 3.80866 14.7912 3.88 14.8418 3.96636C14.8877 4.044 14.9119 4.13252 14.9119 4.22269C14.9119 4.31286 14.8877 4.40138 14.8418 4.47902L9.03458 14.5641C8.98293 14.6501 8.90992 14.7212 8.82265 14.7706C8.73537 14.82 8.63681 14.8459 8.53653 14.8459C8.43626 14.8459 8.33769 14.82 8.25042 14.7706C8.16315 14.7212 8.09013 14.6501 8.03849 14.5641L2.23126 4.47902C2.1858 4.40114 2.16207 4.3125 2.16254 4.22233C2.16301 4.13216 2.18766 4.04376 2.23392 3.96636Z" fill="black"/>
</svg>
