<svg width="18" height="18" viewBox="0 0 18 18" fill="none" xmlns="http://www.w3.org/2000/svg">
<path d="M1.43627 5.00961L7.2435 15.0947C7.38862 15.3418 7.59579 15.5467 7.84447 15.689C8.09316 15.8314 8.37473 15.9062 8.66127 15.9062C8.94782 15.9062 9.22939 15.8314 9.47808 15.689C9.72676 15.5467 9.93393 15.3418 10.079 15.0947L15.8863 5.00961C16.0259 4.77062 16.0995 4.49881 16.0995 4.22203C16.0995 3.94524 16.0259 3.67343 15.8863 3.43445C15.7431 3.18583 15.5363 2.97981 15.2871 2.83754C15.0379 2.69528 14.7554 2.62191 14.4685 2.62496H2.85405C2.56737 2.62214 2.28511 2.69563 2.0362 2.83788C1.78729 2.98013 1.5807 3.18603 1.4376 3.43445C1.29777 3.67332 1.22396 3.94506 1.22372 4.22185C1.22349 4.49863 1.29685 4.7705 1.43627 5.00961ZM2.35733 3.96636C2.40795 3.88 2.48064 3.80866 2.56792 3.75965C2.65521 3.71064 2.75396 3.68572 2.85405 3.68746H14.4685C14.5686 3.68572 14.6673 3.71064 14.7546 3.75965C14.8419 3.80866 14.9146 3.88 14.9652 3.96636C15.0111 4.044 15.0353 4.13252 15.0353 4.22269C15.0353 4.31286 15.0111 4.40138 14.9652 4.47902L9.15799 14.5641C9.10634 14.6501 9.03333 14.7212 8.94606 14.7706C8.85879 14.82 8.76022 14.8459 8.65995 14.8459C8.55967 14.8459 8.46111 14.82 8.37383 14.7706C8.28656 14.7212 8.21355 14.6501 8.1619 14.5641L2.35467 4.47902C2.30922 4.40114 2.28549 4.3125 2.28595 4.22233C2.28642 4.13216 2.31107 4.04376 2.35733 3.96636Z" fill="black"/>
</svg>
