<svg width="170" height="144" viewBox="0 0 170 144" fill="none" xmlns="http://www.w3.org/2000/svg">
<path d="M168.32 27.315L154.243 3.315C153.658 2.31816 152.759 1.47999 151.646 0.894463C150.534 0.308935 149.252 -0.000796503 147.944 1.53826e-06H21.258C19.9505 -0.000796503 18.6686 0.308935 17.556 0.894463C16.4433 1.47999 15.544 2.31816 14.9589 3.315L0.88268 27.315C0.398146 28.1499 0.145297 29.0685 0.143677 30V132C0.143677 135.183 1.62671 138.235 4.26651 140.485C6.90632 142.736 10.4867 144 14.2199 144H154.982C158.716 144 162.296 142.736 164.936 140.485C167.576 138.235 169.059 135.183 169.059 132V30C169.057 29.0685 168.804 28.1499 168.32 27.315ZM25.6041 12H143.598L150.636 24H18.566L25.6041 12ZM154.982 132H14.2199V36H154.982V132ZM117.733 85.755C118.388 86.3122 118.907 86.974 119.261 87.7024C119.615 88.4307 119.797 89.2115 119.797 90C119.797 90.7885 119.615 91.5693 119.261 92.2976C118.907 93.026 118.388 93.6878 117.733 94.245L89.5806 118.245C88.927 118.803 88.1508 119.245 87.2963 119.547C86.4419 119.849 85.5261 120.005 84.6012 120.005C83.6762 120.005 82.7604 119.849 81.906 119.547C81.0516 119.245 80.2753 118.803 79.6217 118.245L51.4692 94.245C50.1486 93.1192 49.4066 91.5922 49.4066 90C49.4066 88.4078 50.1486 86.8808 51.4692 85.755C52.7898 84.6292 54.581 83.9967 56.4487 83.9967C58.3163 83.9967 60.1075 84.6292 61.4281 85.755L77.563 99.5175V54C77.563 52.4087 78.3046 50.8826 79.6245 49.7574C80.9444 48.6321 82.7345 48 84.6012 48C86.4678 48 88.258 48.6321 89.5779 49.7574C90.8978 50.8826 91.6393 52.4087 91.6393 54V99.5175L107.774 85.755C108.428 85.1971 109.204 84.7546 110.058 84.4526C110.913 84.1507 111.829 83.9953 112.754 83.9953C113.679 83.9953 114.594 84.1507 115.449 84.4526C116.303 84.7546 117.079 85.1971 117.733 85.755Z" fill="black" fill-opacity="0.5"/>
</svg>
