<svg width="72" height="74" viewBox="0 0 72 74" fill="none" xmlns="http://www.w3.org/2000/svg">
<path d="M35.7647 0.5C30.2782 0.5 26.0528 3.83029 26.0528 7.81233C26.0528 11.6477 26.0159 15.0035 26.0159 15.0035H16.2606C16.077 15.0035 15.8994 15.0183 15.7242 15.0394H13.011V21.9345H58.5185V15.0394H55.8052C55.63 15.0183 55.4524 15.0035 55.2688 15.0035H45.5137C45.5137 15.0035 45.6247 11.9658 45.6247 7.83475C45.6247 3.99927 41.2513 0.5 35.7647 0.5ZM0 7.49383V74H71.5294V7.49383H48.8682V12.3119H64.9809V69.173H6.55486V12.3119H22.6613V7.49383H0ZM35.7647 7.5835C37.5622 7.5835 39.0144 8.63578 39.0144 9.93869C39.0144 11.244 37.5622 12.2983 35.7647 12.2983C33.9673 12.2983 32.5151 11.2439 32.5151 9.93869C32.5151 8.63584 33.9673 7.5835 35.7647 7.5835ZM13.011 26.609V28.9687H16.2606V26.609H13.011ZM22.7661 26.6539V29.0135H58.5185V26.6539H22.7661ZM13.011 35.5094V37.8691H16.2606V35.5094H13.011ZM22.7661 35.5542V37.9184H58.5185V35.5542H22.7661ZM13.011 44.4098V46.7695H16.2606V44.4098H13.011ZM22.7661 44.4591V46.8188H58.5185V44.4591H22.7661ZM13.011 53.3147V55.6743H16.2606V53.3147H13.011ZM22.7661 53.364V55.7237H58.5185V53.364H22.7661ZM13.011 62.2151V64.5747H16.2606V62.2151H13.011ZM22.7661 62.2644V64.624H58.5185V62.2644H22.7661Z" fill="black"/>
</svg>
