<svg width="68" height="67" viewBox="0 0 68 67" fill="none" xmlns="http://www.w3.org/2000/svg">
<path d="M0.686279 58.0938V8.40625C0.686279 6.20993 1.78116 4.10356 3.73007 2.55052C5.67898 0.997486 8.32226 0.125 11.0784 0.125H63.0392C64.1417 0.125 65.199 0.473994 65.9786 1.09521C66.7581 1.71642 67.1961 2.55897 67.1961 3.4375V63.0625C67.1961 63.941 66.7581 64.7836 65.9786 65.4048C65.199 66.026 64.1417 66.375 63.0392 66.375H11.0784C8.32226 66.375 5.67898 65.5025 3.73007 63.9495C1.78116 62.3964 0.686279 60.2901 0.686279 58.0938ZM0.686279 58.0938C0.686279 55.8974 1.78116 53.7911 3.73007 52.238C5.67898 50.685 8.32226 49.8125 11.0784 49.8125H67.1961" stroke="black" stroke-width="2" stroke-linecap="round" stroke-linejoin="round"/>
<path d="M21.4706 24.9687L29.7843 31.5937L46.4118 18.3438" stroke="black" stroke-width="2" stroke-linecap="round" stroke-linejoin="round"/>
</svg>
