<svg width="97" height="83" viewBox="0 0 97 83" fill="none" xmlns="http://www.w3.org/2000/svg">
<g clip-path="url(#clip0_7_1846)">
<path d="M15.0588 9.52344V68.8203C15.0588 69.5319 15.7308 70.1094 16.5588 70.1094H35.5788C36.7723 70.1094 37.9169 70.5168 38.7608 71.242C39.6047 71.9673 40.0788 72.9509 40.0788 73.9766C40.0788 75.0022 39.6047 75.9858 38.7608 76.7111C37.9169 77.4363 36.7723 77.8438 35.5788 77.8438H16.5588C13.7741 77.8438 11.1033 76.8931 9.13422 75.2008C7.16508 73.5086 6.05884 71.2135 6.05884 68.8203V9.52344C6.05884 4.5425 10.7628 0.5 16.5588 0.5H67.5588C73.3548 0.5 78.0588 4.5425 78.0588 9.52344V49.4122C78.0588 50.4378 77.5847 51.4215 76.7408 52.1467C75.8969 52.8719 74.7523 53.2794 73.5588 53.2794C72.3654 53.2794 71.2208 52.8719 70.3769 52.1467C69.5329 51.4215 69.0588 50.4378 69.0588 49.4122V9.52344C69.0588 9.18156 68.9008 8.85368 68.6195 8.61193C68.3382 8.37019 67.9567 8.23438 67.5588 8.23438H16.5588C16.161 8.23438 15.7795 8.37019 15.4982 8.61193C15.2169 8.85368 15.0588 9.18156 15.0588 9.52344ZM94.7028 58.6986L67.3608 81.6439C66.512 82.3548 65.3712 82.7492 64.186 82.7415C63.0008 82.7338 61.867 82.3245 61.0308 81.6027L49.3728 71.548C48.5795 70.8136 48.1488 69.8433 48.1716 68.8414C48.1943 67.8395 48.6687 66.8844 49.4947 66.1772C50.3208 65.4699 51.4341 65.0659 52.5999 65.0501C53.7658 65.0343 54.8933 65.4081 55.7448 66.0927L64.2588 73.4403L88.4148 53.1659C89.2694 52.4494 90.4201 52.0538 91.614 52.0664C92.2051 52.0726 92.7891 52.1789 93.3324 52.379C93.8758 52.5792 94.368 52.8694 94.7808 53.233C95.1937 53.5966 95.5192 54.0265 95.7387 54.4983C95.9583 54.97 96.0675 55.4742 96.0603 55.9822C96.053 56.4902 95.9294 56.9921 95.6965 57.459C95.4636 57.926 95.126 58.3489 94.7028 58.7038M28.5588 21.125H55.5588C56.7523 21.125 57.8969 21.5324 58.7408 22.2577C59.5847 22.9829 60.0588 23.9665 60.0588 24.9922C60.0588 26.0178 59.5847 27.0015 58.7408 27.7267C57.8969 28.4519 56.7523 28.8594 55.5588 28.8594H28.5588C27.3654 28.8594 26.2208 28.4519 25.3769 27.7267C24.5329 27.0015 24.0588 26.0178 24.0588 24.9922C24.0588 23.9665 24.5329 22.9829 25.3769 22.2577C26.2208 21.5324 27.3654 21.125 28.5588 21.125ZM24.0588 40.4609C24.0588 39.4353 24.5329 38.4517 25.3769 37.7264C26.2208 37.0012 27.3654 36.5938 28.5588 36.5938H40.5588C41.7523 36.5938 42.8969 37.0012 43.7408 37.7264C44.5847 38.4517 45.0588 39.4353 45.0588 40.4609C45.0588 41.4866 44.5847 42.4702 43.7408 43.1955C42.8969 43.9207 41.7523 44.3281 40.5588 44.3281H28.5588C27.3654 44.3281 26.2208 43.9207 25.3769 43.1955C24.5329 42.4702 24.0588 41.4866 24.0588 40.4609Z" fill="black"/>
</g>
<defs>
<clipPath id="clip0_7_1846">
<rect width="96" height="82.5" fill="white" transform="translate(0.0588379 0.5)"/>
</clipPath>
</defs>
</svg>
