<svg width="80" height="72" viewBox="0 0 80 72" fill="none" xmlns="http://www.w3.org/2000/svg">
<mask id="mask0_7_1825" style="mask-type:luminance" maskUnits="userSpaceOnUse" x="-2" y="-2" width="84" height="76">
<path d="M40.1177 27.875C42.1364 27.875 44.1354 27.5185 46.0005 26.826C47.8656 26.1334 49.5602 25.1183 50.9877 23.8386C52.4152 22.5589 53.5475 21.0396 54.3201 19.3676C55.0926 17.6956 55.4902 15.9035 55.4902 14.0938C55.4902 12.284 55.0926 10.4919 54.3201 8.81989C53.5475 7.14788 52.4152 5.62864 50.9877 4.34894C49.5602 3.06923 47.8656 2.05411 46.0005 1.36153C44.1354 0.668962 42.1364 0.3125 40.1177 0.3125C36.0406 0.3125 32.1305 1.76445 29.2476 4.34894C26.3647 6.93342 24.7451 10.4387 24.7451 14.0938C24.7451 17.7488 26.3647 21.2541 29.2476 23.8386C32.1305 26.4231 36.0406 27.875 40.1177 27.875ZM0.588257 68.825V71.1875H79.6471V68.825C79.6471 60.005 79.6471 55.595 77.7321 52.2245C76.0478 49.2611 73.3602 46.8517 70.0546 45.3417C66.2949 43.625 61.3757 43.625 51.5373 43.625H28.6981C18.8596 43.625 13.9404 43.625 10.1807 45.3417C6.87512 46.8517 4.18758 49.2611 2.50324 52.2245C0.588257 55.595 0.588257 60.005 0.588257 68.825Z" fill="#555555" stroke="white" stroke-width="4" stroke-linecap="round" stroke-linejoin="round"/>
</mask>
<g mask="url(#mask0_7_1825)">
<path d="M-12.5882 -11.5H92.8236V83H-12.5882V-11.5Z" fill="black" fill-opacity="0.5"/>
</g>
</svg>
