<svg width="88" height="68" viewBox="0 0 88 68" fill="none" xmlns="http://www.w3.org/2000/svg">
<g clip-path="url(#clip0_7_1816)">
<path d="M57.086 0.500002C57.086 0.500002 54.4884 0.603848 51.1547 1.7176C47.8177 2.83394 43.2952 4.92125 38.0399 9.01798C27.5261 17.214 23.9893 25.6489 23.9893 25.6489C23.7698 25.9818 23.6452 26.3478 23.624 26.7218C23.6029 27.0957 23.6857 27.4688 23.8669 27.8154C24.048 28.1621 24.3232 28.4741 24.6735 28.7301C25.0238 28.9861 25.441 29.18 25.8965 29.2985C26.3519 29.4171 26.8348 29.4575 27.3122 29.4169C27.7895 29.3763 28.2499 29.2557 28.6619 29.0634C29.0739 28.8711 29.4276 28.6117 29.6989 28.3028C29.9702 27.994 30.1526 27.6431 30.2337 27.2741C30.2337 27.2741 33.3608 20.1321 42.8289 12.7513C47.5613 9.05952 51.3678 7.2552 53.8589 6.42183C55.4708 5.88443 55.5108 5.98048 55.9404 5.93635L59.7936 8.9375C53.0284 13.0005 46.5971 17.3905 40.5377 22.0818C26.4071 33.0947 13.2724 46.9867 13.2724 46.9867L27.4262 58.0204C27.4262 58.0204 45.2467 47.7786 59.3773 36.7657C73.5045 25.7528 82.5829 15.0229 82.5829 15.0229L68.4291 3.98923C68.4291 3.98923 67.1769 4.73433 65.3086 5.77279L59.4805 1.22952C59.1633 0.990301 58.7883 0.802618 58.3772 0.67738C57.9661 0.552142 57.5272 0.491848 57.086 0.500002ZM79.2526 0.500002C77.1312 0.681733 74.6334 1.50212 71.4497 2.69116L84.2481 12.6708C87.2953 7.70173 88.3943 4.94721 84.8742 2.20308C83.1124 0.83231 81.3773 0.318271 79.2526 0.500002ZM10.9811 48.7729C6.56843 54.5104 5.2696 59.2691 4.94656 61.9951L2.13578 64.1058C1.69415 64.4501 1.44604 64.917 1.44604 65.4039C1.44604 65.8907 1.69415 66.3577 2.13578 66.7019C2.5774 67.0462 3.17638 67.2396 3.80093 67.2396C4.42549 67.2396 5.02447 67.0462 5.46609 66.7019L8.27688 64.5108C11.787 64.2486 17.8382 63.2179 25.1349 59.8066L10.9811 48.7729Z" fill="black"/>
</g>
<defs>
<clipPath id="clip0_7_1816">
<rect width="86.5882" height="67.5" fill="white" transform="translate(0.470581 0.5)"/>
</clipPath>
</defs>
</svg>
