<svg width="18" height="17" viewBox="0 0 18 17" fill="none" xmlns="http://www.w3.org/2000/svg">
<path d="M1.3131 4.50961L7.12033 14.5947C7.26545 14.8418 7.47262 15.0467 7.7213 15.189C7.96999 15.3314 8.25156 15.4062 8.53811 15.4062C8.82465 15.4062 9.10622 15.3314 9.35491 15.189C9.60359 15.0467 9.81076 14.8418 9.95588 14.5947L15.7631 4.50961C15.9027 4.27062 15.9763 3.99881 15.9763 3.72203C15.9763 3.44524 15.9027 3.17343 15.7631 2.93445C15.6199 2.68583 15.4131 2.47981 15.1639 2.33754C14.9148 2.19528 14.6322 2.12191 14.3453 2.12496H2.73088C2.4442 2.12214 2.16194 2.19563 1.91303 2.33788C1.66412 2.48013 1.45753 2.68603 1.31443 2.93445C1.1746 3.17332 1.10079 3.44506 1.10056 3.72185C1.10032 3.99863 1.17368 4.2705 1.3131 4.50961ZM2.23416 3.46636C2.28479 3.38 2.35747 3.30866 2.44475 3.25965C2.53204 3.21064 2.63079 3.18572 2.73088 3.18746H14.3453C14.4454 3.18572 14.5442 3.21064 14.6315 3.25965C14.7187 3.30866 14.7914 3.38 14.8421 3.46636C14.8879 3.544 14.9121 3.63252 14.9121 3.72269C14.9121 3.81286 14.8879 3.90138 14.8421 3.97902L9.03482 14.0641C8.98318 14.1501 8.91016 14.2212 8.82289 14.2706C8.73562 14.32 8.63705 14.3459 8.53678 14.3459C8.4365 14.3459 8.33794 14.32 8.25066 14.2706C8.16339 14.2212 8.09038 14.1501 8.03873 14.0641L2.2315 3.97902C2.18605 3.90114 2.16232 3.8125 2.16278 3.72233C2.16325 3.63216 2.1879 3.54376 2.23416 3.46636Z" fill="black"/>
</svg>
