<svg width="48" height="38" viewBox="0 0 48 38" fill="none" xmlns="http://www.w3.org/2000/svg">
<g clip-path="url(#clip0_3_42)">
<path d="M17.2757 1.2334C12.5738 2.53321 8.51886 5.00029 5.70653 8.27227C2.89421 11.5442 1.47271 15.4487 1.65084 19.412C1.82897 23.3754 3.59733 27.1887 6.69619 30.292C9.79504 33.3953 14.061 35.6249 18.8676 36.6533C22.7644 37.4546 26.847 37.4898 30.7647 36.7559C34.3136 36.1206 37.5947 34.7618 40.2867 32.8125C43.0885 30.7217 45.1221 28.0619 46.1691 25.1191C47.307 21.9189 47.5095 18.5535 46.761 15.2812H24.8786V22.5146H37.5514C37.2981 23.6683 36.7554 24.7694 35.9556 25.752C35.1559 26.7347 34.1156 27.5786 32.897 28.2334C31.3495 29.0491 29.6051 29.598 27.7757 29.8447C25.9409 30.1166 24.059 30.1166 22.2242 29.8447C20.3646 29.5383 18.6055 28.9267 17.0588 28.0488C14.574 26.6472 12.7083 24.656 11.7279 22.3594C10.7309 20.0197 10.7309 17.4832 11.7279 15.1436C12.4258 13.5036 13.5795 12.0104 15.1029 10.7754C16.8462 9.33617 19.0534 8.30741 21.4821 7.80198C23.9109 7.29655 26.4674 7.33397 28.8713 7.91015C30.7491 8.3695 32.4663 9.17208 33.886 10.2539C35.3149 9.12109 36.7414 7.98535 38.1654 6.84668C38.9007 6.23437 39.7022 5.65137 40.4264 5.02441C38.2594 3.41741 35.7157 2.16696 32.9411 1.34472C27.8886 -0.117219 22.3602 -0.156507 17.2757 1.2334Z" fill="white"/>
<path d="M17.2757 1.23336C22.3598 -0.157493 27.8882 -0.119239 32.9411 1.34175C35.7162 2.16958 38.2587 3.42605 40.4228 5.03902C39.6875 5.66597 38.9117 6.25191 38.1617 6.86128C36.7353 7.99605 35.31 9.12691 33.886 10.2539C32.4663 9.17204 30.7491 8.36946 28.8713 7.91011C26.4683 7.33191 23.9118 7.29232 21.4824 7.79569C19.053 8.29905 16.8445 9.32592 15.0992 10.7636C13.5758 11.9986 12.4221 13.4918 11.7242 15.1318L4.10291 10.4296C6.83088 6.11879 11.5542 2.82132 17.2757 1.23336Z" fill="#E33629"/>
<path d="M2.08087 15.0879C2.49051 13.4701 3.17059 11.9034 4.10293 10.4297L11.7243 15.1436C10.7272 17.4832 10.7272 20.0197 11.7243 22.3594C9.18504 23.9219 6.6446 25.4922 4.10293 27.0703C1.76893 23.3681 1.05709 19.1499 2.08087 15.0879Z" fill="#F8BD00"/>
<path d="M24.8786 15.2783H46.761C47.5095 18.5506 47.307 21.916 46.1691 25.1162C45.1222 28.059 43.0885 30.7188 40.2867 32.8096C37.8272 31.2803 35.3566 29.7627 32.897 28.2334C34.1164 27.578 35.1572 26.7331 35.957 25.7494C36.7568 24.7657 37.2991 23.6635 37.5514 22.5088H24.8786C24.875 20.1006 24.8786 17.6895 24.8786 15.2783Z" fill="#587DBD"/>
<path d="M4.09924 27.0703C6.64091 25.5078 9.18135 23.9375 11.7206 22.3594C12.7029 24.6568 14.5713 26.6481 17.0588 28.0488C18.6103 28.9226 20.3733 29.5293 22.2353 29.8301C24.07 30.1019 25.952 30.1019 27.7867 29.8301C29.6161 29.5833 31.3606 29.0345 32.9081 28.2187C35.3676 29.748 37.8382 31.2656 40.2978 32.7949C37.6062 34.7453 34.325 36.1051 30.7757 36.7412C26.8581 37.4751 22.7754 37.4399 18.8787 36.6387C15.7967 35.9829 12.9179 34.8269 10.4228 33.2432C7.78182 31.5723 5.62481 29.4667 4.09924 27.0703Z" fill="#319F43"/>
</g>
<defs>
<clipPath id="clip0_3_42">
<rect width="47.0588" height="37.5" fill="white" transform="translate(0.882324)"/>
</clipPath>
</defs>
</svg>
