<svg width="17" height="17" viewBox="0 0 17 17" fill="none" xmlns="http://www.w3.org/2000/svg">
<path d="M1.27477 4.50967L7.082 14.5948C7.22712 14.8419 7.43429 15.0467 7.68297 15.1891C7.93166 15.3314 8.21323 15.4063 8.49977 15.4063C8.78632 15.4063 9.06789 15.3314 9.31658 15.1891C9.56526 15.0467 9.77243 14.8419 9.91755 14.5948L15.7248 4.50967C15.8644 4.27068 15.938 3.99887 15.938 3.72209C15.938 3.4453 15.8644 3.17349 15.7248 2.93451C15.5816 2.68589 15.3748 2.47987 15.1256 2.33761C14.8764 2.19534 14.5939 2.12197 14.307 2.12502H2.69255C2.40587 2.12221 2.12361 2.19569 1.8747 2.33794C1.62579 2.48019 1.4192 2.68609 1.2761 2.93451C1.13627 3.17338 1.06246 3.44512 1.06223 3.72191C1.06199 3.99869 1.13535 4.27056 1.27477 4.50967ZM2.19583 3.46642C2.24646 3.38006 2.31914 3.30872 2.40642 3.25971C2.49371 3.2107 2.59246 3.18578 2.69255 3.18752H14.307C14.4071 3.18578 14.5058 3.2107 14.5931 3.25971C14.6804 3.30872 14.7531 3.38006 14.8037 3.46642C14.8496 3.54406 14.8738 3.63258 14.8738 3.72275C14.8738 3.81292 14.8496 3.90144 14.8037 3.97908L8.99649 14.0642C8.94485 14.1501 8.87183 14.2213 8.78456 14.2706C8.69729 14.32 8.59872 14.346 8.49845 14.346C8.39817 14.346 8.29961 14.32 8.21233 14.2706C8.12506 14.2213 8.05205 14.1501 8.0004 14.0642L2.19317 3.97908C2.14772 3.9012 2.12399 3.81256 2.12445 3.72239C2.12492 3.63222 2.14957 3.54382 2.19583 3.46642Z" fill="black"/>
</svg>
