<svg width="46" height="36" viewBox="0 0 46 36" fill="none" xmlns="http://www.w3.org/2000/svg">
<path d="M40.1877 16.5C39.6899 16.5 39.2125 16.658 38.8605 16.9393C38.5086 17.2206 38.3108 17.6022 38.3108 18C38.3332 20.8095 37.129 23.5374 34.9056 25.7137C32.6822 27.89 29.5789 29.3785 26.1301 29.9229C22.6813 30.4673 19.1029 30.0335 16.0112 28.6962C12.9196 27.3589 10.5082 25.2017 9.19237 22.5964C7.87656 19.991 7.73871 17.1005 8.80255 14.4226C9.86639 11.7448 12.0653 9.4472 15.0206 7.92567C17.976 6.40414 21.5027 5.75387 24.9933 6.08687C28.484 6.41986 31.7201 7.71528 34.1443 9.75H29.6399C29.1421 9.75 28.6647 9.90803 28.3127 10.1893C27.9608 10.4706 27.763 10.8522 27.763 11.25C27.763 11.6478 27.9608 12.0294 28.3127 12.3107C28.6647 12.592 29.1421 12.75 29.6399 12.75H38.1419C38.6397 12.75 39.1171 12.592 39.469 12.3107C39.821 12.0294 40.0187 11.6478 40.0187 11.25V4.5C40.0187 4.10217 39.821 3.72064 39.469 3.43934C39.1171 3.15803 38.6397 3 38.1419 3C37.6441 3 37.1668 3.15803 36.8148 3.43934C36.4628 3.72064 36.2651 4.10217 36.2651 4.5V7.155C33.1395 4.76709 29.0782 3.31493 24.7676 3.04399C20.4571 2.77306 16.1616 3.69997 12.6075 5.66804C9.05328 7.6361 6.45836 10.5246 5.26136 13.8453C4.06435 17.166 4.33867 20.7151 6.03795 23.8928C7.73723 27.0705 10.7572 29.6818 14.5875 31.2853C18.4177 32.8888 22.8232 33.3861 27.0593 32.6932C31.2954 32.0003 35.1022 30.1597 37.8362 27.4825C40.5703 24.8053 42.0639 21.4557 42.0645 18C42.0645 17.6022 41.8668 17.2206 41.5148 16.9393C41.1628 16.658 40.6854 16.5 40.1877 16.5Z" fill="black"/>
</svg>
