<svg width="17" height="17" viewBox="0 0 17 17" fill="none" xmlns="http://www.w3.org/2000/svg">
<path d="M1.27502 4.50967L7.08224 14.5948C7.22736 14.8419 7.43453 15.0467 7.68322 15.1891C7.9319 15.3314 8.21347 15.4063 8.50002 15.4063C8.78656 15.4063 9.06813 15.3314 9.31682 15.1891C9.56551 15.0467 9.77268 14.8419 9.91779 14.5948L15.725 4.50967C15.8646 4.27068 15.9382 3.99887 15.9382 3.72209C15.9382 3.4453 15.8646 3.17349 15.725 2.93451C15.5818 2.68589 15.375 2.47987 15.1258 2.33761C14.8767 2.19534 14.5941 2.12197 14.3072 2.12502H2.69279C2.40612 2.12221 2.12385 2.19569 1.87494 2.33794C1.62604 2.48019 1.41944 2.68609 1.27635 2.93451C1.13652 3.17338 1.0627 3.44512 1.06247 3.72191C1.06224 3.99869 1.13559 4.27056 1.27502 4.50967ZM2.19607 3.46642C2.2467 3.38006 2.31938 3.30872 2.40667 3.25971C2.49395 3.2107 2.5927 3.18578 2.69279 3.18752H14.3072C14.4073 3.18578 14.5061 3.2107 14.5934 3.25971C14.6807 3.30872 14.7533 3.38006 14.804 3.46642C14.8498 3.54406 14.874 3.63258 14.874 3.72275C14.874 3.81292 14.8498 3.90144 14.804 3.97908L8.99674 14.0642C8.94509 14.1501 8.87208 14.2213 8.7848 14.2706C8.69753 14.32 8.59896 14.346 8.49869 14.346C8.39842 14.346 8.29985 14.32 8.21258 14.2706C8.1253 14.2213 8.05229 14.1501 8.00064 14.0642L2.19342 3.97908C2.14796 3.9012 2.12423 3.81256 2.1247 3.72239C2.12516 3.63222 2.14981 3.54382 2.19607 3.46642Z" fill="black"/>
</svg>
