<svg width="31" height="31" viewBox="0 0 31 31" fill="none" xmlns="http://www.w3.org/2000/svg">
<path d="M25.2469 23.1907C25.5199 23.4637 25.6733 23.834 25.6733 24.22C25.6733 24.6061 25.5199 24.9763 25.2469 25.2493C24.9739 25.5223 24.6037 25.6757 24.2176 25.6757C23.8315 25.6757 23.4613 25.5223 23.1883 25.2493L15.5001 17.5587L7.8094 25.2469C7.53642 25.5199 7.16617 25.6732 6.78011 25.6732C6.39405 25.6732 6.0238 25.5199 5.75081 25.2469C5.47783 24.9739 5.32446 24.6037 5.32446 24.2176C5.32446 23.8315 5.47783 23.4613 5.75081 23.1883L13.4415 15.5001L5.75323 7.8094C5.48025 7.53641 5.32688 7.16616 5.32688 6.7801C5.32688 6.39404 5.48025 6.02379 5.75323 5.7508C6.02622 5.47782 6.39647 5.32445 6.78253 5.32445C7.16859 5.32445 7.53884 5.47782 7.81183 5.7508L15.5001 13.4415L23.1907 5.74959C23.4637 5.4766 23.834 5.32324 24.22 5.32324C24.6061 5.32324 24.9763 5.4766 25.2493 5.74959C25.5223 6.02258 25.6757 6.39283 25.6757 6.77889C25.6757 7.16495 25.5223 7.5352 25.2493 7.80818L17.5587 15.5001L25.2469 23.1907Z" fill="black"/>
</svg>
